<?xml version="1.0" standalone="no"?>
<!DOCTYPE svg PUBLIC "-//W3C//DTD SVG 20010904//EN" "http://www.w3.org/TR/2001/REC-SVG-20010904/DTD/svg10.dtd">
<svg version="1.0" xmlns="http://www.w3.org/2000/svg" width="1216pt" height="1216pt" viewBox="0 0 1216 1216"
  preserveAspectRatio="xMidYMid meet">
  <g transform="translate(0,1216) scale(0.1,-0.1)" fill="#000000">
    <path
      d="M5997 9264 c-1 -1 -36 -5 -77 -9 -115 -10 -142 -13 -180 -20 -19 -4 -48 -8 -65 -10 -16 -2 -41 -6 -55 -9 -14 -4 -38 -8 -55 -10 -35 -5 -225 -52 -270 -66 -16 -6 -57 -19 -90 -29 -93 -30 -228 -81 -240 -91 -5 -4 -13 -9 -17 -9 -20 -3 -53 -18 -176 -80 -181 -90 -187 -93 -190 -103 -2 -4 -8 -8 -14 -8 -5 0 -49 -25 -96 -56 -139 -90 -224 -154 -372 -279 -62 -53 -305 -299 -345 -350 -21 -27 -44 -54 -50 -60 -6 -5 -28 -35 -50 -65 -22 -30 -42 -57 -45 -60 -7 -5 -125 -186 -164 -250 -57 -93 -131 -238 -182 -357 -56 -131 -155 -423 -143 -423 5 0 9 5 9 10 0 6 16 43 35 83 19 39 35 78 35 84 0 7 4 13 8 13 5 0 17 19 27 43 11 23 34 67 53 97 51 82 165 253 180 270 7 8 34 42 60 75 104 132 257 288 415 422 77 65 293 214 392 271 88 50 234 120 239 114 3 -3 6 -1 6 4 0 6 17 16 37 24 21 7 54 20 73 28 19 9 40 17 45 19 6 1 57 19 115 39 58 20 157 49 220 64 99 24 151 34 290 55 14 3 41 7 60 10 76 12 427 24 460 15 3 0 39 -3 80 -6 88 -5 148 -11 193 -19 17 -3 46 -7 62 -10 17 -2 41 -7 55 -10 14 -2 36 -6 50 -9 86 -14 269 -65 385 -108 44 -16 85 -30 90 -32 6 -1 27 -10 48 -19 20 -9 54 -24 75 -33 216 -94 512 -281 682 -430 60 -53 155 -140 167 -154 7 -8 52 -55 98 -105 47 -49 85 -94 85 -98 0 -4 11 -19 25 -33 23 -23 126 -162 150 -202 6 -10 19 -31 30 -47 50 -75 132 -226 188 -345 70 -150 164 -416 172 -490 2 -14 4 -25 5 -25 3 0 40 -170 45 -210 3 -16 9 -61 14 -100 34 -245 29 -606 -13 -820 -3 -16 -9 -50 -12 -75 -3 -25 -8 -49 -11 -53 -3 -5 -7 -23 -10 -40 -19 -125 -118 -414 -203 -592 -56 -117 -169 -318 -182 -323 -4 -2 -8 -9 -8 -15 0 -7 -9 -23 -20 -37 -11 -14 -48 -63 -82 -110 -34 -47 -67 -90 -73 -96 -5 -7 -28 -33 -50 -60 -81 -96 -253 -263 -365 -354 -30 -25 -57 -47 -60 -50 -16 -16 -220 -155 -265 -180 -22 -13 -62 -36 -90 -52 -96 -56 -397 -191 -450 -202 -5 -2 -55 -16 -110 -33 -136 -42 -304 -81 -384 -89 -19 -2 -50 -6 -70 -10 -45 -8 -105 -13 -202 -18 -42 -2 -81 -6 -87 -10 -6 -3 -13 -3 -16 2 -3 5 -28 6 -56 2 -27 -4 -50 -4 -50 -1 0 3 -35 6 -78 5 -42 0 -88 4 -102 8 -17 7 -22 6 -15 -1 6 -6 28 -13 50 -16 22 -3 47 -8 55 -11 8 -3 35 -8 60 -11 65 -7 92 -11 116 -16 112 -26 662 -27 788 -1 11 2 36 6 55 9 55 7 105 15 131 20 34 7 94 19 100 20 3 1 23 5 45 10 56 13 55 12 58 15 2 2 22 7 58 14 14 3 45 12 68 21 23 8 42 14 44 14 1 0 9 2 17 5 8 3 35 12 60 20 240 79 516 215 745 369 107 71 285 208 285 219 0 5 4 8 10 8 10 0 29 17 155 140 112 108 232 243 300 335 16 22 31 42 35 45 3 3 16 22 30 42 14 21 28 38 33 38 4 0 7 5 7 12 0 6 11 25 23 42 111 147 308 550 372 763 4 11 62 41 225 115 187 85 483 238 710 366 175 98 554 334 595 370 6 5 24 17 40 28 17 10 39 27 49 36 11 10 26 18 33 18 7 0 13 3 13 8 0 4 21 21 45 37 25 17 45 33 45 38 0 4 5 7 11 7 9 0 71 45 104 75 7 6 29 24 50 40 132 103 350 298 449 404 22 24 52 55 66 70 14 14 51 58 83 96 32 39 67 81 77 93 11 13 20 26 20 28 0 2 22 34 48 71 50 71 147 260 155 303 3 14 10 38 16 54 21 53 25 186 7 254 -21 84 -46 129 -106 195 -72 79 -190 150 -330 199 -78 27 -283 77 -347 84 -30 3 -64 7 -76 10 -41 9 -126 17 -297 30 -200 16 -855 9 -1145 -11 -27 -2 -88 -6 -135 -9 -175 -12 -236 -16 -275 -21 -22 -2 -71 -7 -110 -10 -147 -12 -296 -27 -317 -30 -9 -2 -57 -7 -105 -10 l-89 -7 -26 38 c-14 22 -36 51 -49 65 -13 14 -51 56 -83 94 -56 63 -196 203 -276 274 -108 97 -432 331 -459 331 -6 0 -11 5 -11 10 0 6 -5 10 -11 10 -6 0 -24 9 -40 21 -16 11 -29 17 -29 13 0 -4 -8 0 -17 8 -26 23 -285 148 -295 142 -4 -3 -8 0 -8 5 0 6 -7 11 -15 11 -8 0 -23 4 -33 10 -44 25 -319 114 -422 136 -44 10 -39 9 -75 17 -54 13 -169 34 -235 43 -160 21 -239 26 -448 28 -106 1 -194 1 -195 0z" />
    <path
      d="M2755 6133 c-80 -36 -525 -261 -600 -305 -33 -19 -67 -37 -75 -41 -8 -4 -24 -13 -35 -20 -11 -7 -63 -36 -115 -66 -52 -30 -97 -57 -100 -60 -7 -8 -89 -61 -94 -61 -4 0 -164 -103 -181 -117 -5 -4 -53 -37 -105 -73 -52 -35 -102 -70 -110 -77 -8 -6 -46 -35 -85 -64 -38 -29 -71 -56 -73 -61 -2 -4 -10 -8 -17 -8 -7 0 -15 -3 -17 -7 -1 -5 -36 -35 -77 -68 -226 -182 -482 -438 -625 -623 -267 -346 -357 -616 -267 -796 65 -130 191 -218 414 -291 42 -13 86 -27 99 -30 60 -13 126 -26 158 -31 19 -3 42 -7 50 -9 8 -2 47 -7 85 -11 39 -3 84 -8 100 -10 199 -27 865 -21 1180 12 28 2 79 7 114 9 36 2 85 7 110 11 25 3 64 7 86 9 51 4 140 14 183 21 19 3 55 7 80 9 26 2 47 4 47 5 0 1 16 3 35 6 19 2 51 7 70 9 48 7 77 11 145 20 33 4 68 9 79 11 11 2 38 6 61 9 22 4 54 9 70 12 17 3 44 7 60 9 17 1 59 8 95 15 36 6 74 13 85 14 30 5 99 17 110 19 6 2 33 6 60 10 67 10 81 13 145 26 30 6 64 13 75 15 34 5 97 16 114 20 9 2 72 15 141 29 135 27 166 33 205 41 14 3 37 7 53 11 15 3 41 7 57 10 17 3 44 9 60 14 17 5 44 11 60 14 17 3 60 12 96 20 36 8 77 17 90 20 13 2 92 20 174 39 83 20 161 38 175 41 14 2 99 23 190 46 91 23 174 44 185 47 11 2 33 6 48 9 15 2 37 8 47 14 11 6 20 8 20 6 0 -3 18 1 40 9 22 8 40 12 40 10 0 -3 11 0 25 5 14 5 36 12 48 14 12 2 42 10 67 17 25 7 50 13 55 15 12 3 141 37 260 70 50 13 97 26 105 28 8 2 41 12 74 21 32 9 66 18 74 19 9 2 18 9 20 16 3 7 0 10 -6 6 -5 -3 -27 -8 -48 -10 -22 -3 -48 -7 -59 -9 -11 -2 -42 -8 -68 -11 -27 -4 -59 -10 -70 -12 -12 -3 -40 -7 -62 -9 -56 -5 -121 -14 -181 -23 -28 -5 -59 -7 -68 -6 -9 1 -16 -1 -16 -4 0 -4 -15 -7 -32 -7 -34 -1 -141 -11 -213 -20 -209 -26 -733 -33 -915 -11 -25 3 -71 8 -104 11 -32 4 -68 8 -80 11 -11 2 -37 6 -56 8 -29 4 -135 26 -246 51 -33 8 -156 45 -179 54 -85 36 -101 42 -105 39 -9 -4 -270 135 -270 144 0 4 -5 8 -11 8 -13 0 -107 67 -173 123 -165 141 -292 298 -398 492 -38 69 -56 109 -97 210 -5 11 -13 31 -19 45 -18 44 -36 95 -38 105 -1 6 -12 44 -24 85 -57 195 -98 348 -105 383 -16 92 -35 245 -38 293 -1 30 -2 54 -2 54 0 0 -27 -12 -60 -27z" />
    <path d="M6510 4160 c0 -5 7 -7 15 -4 8 4 15 8 15 10 0 2 -7 4 -15 4 -8 0 -15 -4 -15 -10z" />
  </g>
</svg>
